<svg width="24" height="16" viewBox="0 0 24 16" fill="none" xmlns="http://www.w3.org/2000/svg">
<path fill-rule="evenodd" clip-rule="evenodd" d="M0.350091 7.2349L7.485 0.315559C7.92035 -0.106488 8.62632 -0.106488 9.06167 0.315559C9.49712 0.738138 9.49712 1.42254 9.06167 1.84458L3.82988 6.91823H22.8851C23.5008 6.91823 24 7.4021 24 7.99942C24 8.5962 23.5008 9.0806 22.8851 9.0806H3.82988L9.06156 14.1542C9.49688 14.5758 9.49688 15.2607 9.06156 15.6827C8.84378 15.8935 8.55847 15.9989 8.27316 15.9989C7.98788 15.9989 7.70257 15.8935 7.48489 15.6827L0.350091 8.7634C-0.0853655 8.3419 -0.0853655 7.65695 0.350091 7.2349Z" fill="#BBC7D7"/>
</svg>
