<svg width="141" height="25" viewBox="0 0 141 25" fill="none" xmlns="http://www.w3.org/2000/svg">
<path opacity="0.8" d="M45.5999 16.38H50.1599V19H42.1799V4.86H45.5999V16.38ZM55.9707 7.7C56.824 7.7 57.5573 7.89333 58.1707 8.28C58.784 8.66667 59.2373 9.19333 59.5307 9.86V7.84H62.9307V19H59.5307V16.98C59.2373 17.6467 58.784 18.1733 58.1707 18.56C57.5573 18.9467 56.824 19.14 55.9707 19.14C55.0507 19.14 54.224 18.9133 53.4907 18.46C52.7707 17.9933 52.1973 17.3267 51.7707 16.46C51.3573 15.5933 51.1507 14.58 51.1507 13.42C51.1507 12.2467 51.3573 11.2333 51.7707 10.38C52.1973 9.51333 52.7707 8.85333 53.4907 8.4C54.224 7.93333 55.0507 7.7 55.9707 7.7ZM57.0707 10.7C56.3373 10.7 55.744 10.94 55.2907 11.42C54.8507 11.9 54.6307 12.5667 54.6307 13.42C54.6307 14.2733 54.8507 14.94 55.2907 15.42C55.744 15.9 56.3373 16.14 57.0707 16.14C57.7907 16.14 58.3773 15.8933 58.8307 15.4C59.2973 14.9067 59.5307 14.2467 59.5307 13.42C59.5307 12.58 59.2973 11.92 58.8307 11.44C58.3773 10.9467 57.7907 10.7 57.0707 10.7ZM72.3653 7.72C73.6453 7.72 74.6587 8.14667 75.4053 9C76.1653 9.85333 76.5453 11.0267 76.5453 12.52V19H73.1253V12.92C73.1253 12.1733 72.9253 11.5933 72.5253 11.18C72.1387 10.7533 71.6187 10.54 70.9653 10.54C70.272 10.54 69.7187 10.76 69.3053 11.2C68.9053 11.64 68.7053 12.2667 68.7053 13.08V19H65.2853V7.84H68.7053V9.88C69.0253 9.21333 69.4987 8.68667 70.1253 8.3C70.7653 7.91333 71.512 7.72 72.3653 7.72ZM83.041 7.7C83.8943 7.7 84.6276 7.89333 85.241 8.28C85.8543 8.66667 86.301 9.19333 86.581 9.86V4.2H90.001V19H86.581V16.98C86.301 17.6467 85.8543 18.1733 85.241 18.56C84.6276 18.9467 83.8943 19.14 83.041 19.14C82.121 19.14 81.2943 18.9133 80.561 18.46C79.841 17.9933 79.2676 17.3267 78.841 16.46C78.4276 15.5933 78.221 14.58 78.221 13.42C78.221 12.2467 78.4276 11.2333 78.841 10.38C79.2676 9.51333 79.841 8.85333 80.561 8.4C81.2943 7.93333 82.121 7.7 83.041 7.7ZM84.141 10.7C83.4076 10.7 82.8143 10.94 82.361 11.42C81.921 11.9 81.701 12.5667 81.701 13.42C81.701 14.2733 81.921 14.94 82.361 15.42C82.8143 15.9 83.4076 16.14 84.141 16.14C84.861 16.14 85.4476 15.8933 85.901 15.4C86.3676 14.9067 86.601 14.2467 86.601 13.42C86.601 12.58 86.3676 11.92 85.901 11.44C85.4476 10.9467 84.861 10.7 84.141 10.7ZM96.5957 7.7C97.449 7.7 98.1823 7.89333 98.7957 8.28C99.409 8.66667 99.8623 9.19333 100.156 9.86V7.84H103.556V18.94C103.556 19.98 103.356 20.9133 102.956 21.74C102.556 22.58 101.942 23.2467 101.116 23.74C100.289 24.2333 99.2623 24.48 98.0357 24.48C96.3557 24.48 95.009 24.08 93.9957 23.28C92.9957 22.4933 92.3957 21.42 92.1957 20.06H95.5757C95.6823 20.5133 95.9223 20.8667 96.2957 21.12C96.6823 21.3733 97.1823 21.5 97.7957 21.5C98.5023 21.5 99.069 21.2933 99.4957 20.88C99.9357 20.48 100.156 19.8333 100.156 18.94V16.98C99.8623 17.6467 99.409 18.1733 98.7957 18.56C98.1823 18.9467 97.449 19.14 96.5957 19.14C95.6757 19.14 94.849 18.9133 94.1157 18.46C93.3957 17.9933 92.8223 17.3267 92.3957 16.46C91.9823 15.5933 91.7757 14.58 91.7757 13.42C91.7757 12.2467 91.9823 11.2333 92.3957 10.38C92.8223 9.51333 93.3957 8.85333 94.1157 8.4C94.849 7.93333 95.6757 7.7 96.5957 7.7ZM97.6957 10.7C96.9623 10.7 96.369 10.94 95.9157 11.42C95.4757 11.9 95.2557 12.5667 95.2557 13.42C95.2557 14.2733 95.4757 14.94 95.9157 15.42C96.369 15.9 96.9623 16.14 97.6957 16.14C98.4157 16.14 99.0023 15.8933 99.4557 15.4C99.9223 14.9067 100.156 14.2467 100.156 13.42C100.156 12.58 99.9223 11.92 99.4557 11.44C99.0023 10.9467 98.4157 10.7 97.6957 10.7ZM117.01 7.84V19H113.57V16.98C113.25 17.6333 112.77 18.1533 112.13 18.54C111.504 18.9267 110.77 19.12 109.93 19.12C108.65 19.12 107.63 18.6933 106.87 17.84C106.124 16.9867 105.75 15.8133 105.75 14.32V7.84H109.15V13.9C109.15 14.66 109.344 15.2533 109.73 15.68C110.13 16.0933 110.664 16.3 111.33 16.3C112.024 16.3 112.57 16.08 112.97 15.64C113.37 15.2 113.57 14.5733 113.57 13.76V7.84H117.01ZM122.787 9.94C123.214 9.26 123.761 8.72 124.427 8.32C125.107 7.92 125.841 7.72 126.627 7.72V11.38H125.647C124.741 11.38 124.034 11.5733 123.527 11.96C123.034 12.3467 122.787 13 122.787 13.92V19H119.367V7.84H122.787V9.94ZM139.159 7.84V19H135.719V16.98C135.399 17.6333 134.919 18.1533 134.279 18.54C133.652 18.9267 132.919 19.12 132.079 19.12C130.799 19.12 129.779 18.6933 129.019 17.84C128.272 16.9867 127.899 15.8133 127.899 14.32V7.84H131.299V13.9C131.299 14.66 131.492 15.2533 131.879 15.68C132.279 16.0933 132.812 16.3 133.479 16.3C134.172 16.3 134.719 16.08 135.119 15.64C135.519 15.2 135.719 14.5733 135.719 13.76V7.84H139.159Z" fill="#02073E"/>
<path fill-rule="evenodd" clip-rule="evenodd" d="M28.4326 6.28911C28.4372 6.37084 28.4312 6.45385 28.4108 6.53728L26.5851 13.8696C26.493 14.2386 26.1632 14.4988 25.7842 14.5009L14.8303 14.5564C14.8289 14.5564 14.8275 14.5564 14.826 14.5564H3.87208C3.49095 14.5564 3.15892 14.2953 3.06692 13.9242L1.24124 6.56393C1.22015 6.47878 1.21414 6.39319 1.21945 6.30933C0.513168 6.08614 -0.000488281 5.42252 -0.000488281 4.64065C-0.000488281 3.67515 0.781211 2.89025 1.74216 2.89025C2.70311 2.89025 3.48481 3.67515 3.48481 4.64065C3.48481 5.18382 3.23683 5.66982 2.84857 5.9915L5.13428 8.30358C5.71203 8.88804 6.5136 9.2235 7.33366 9.2235C8.30341 9.2235 9.22795 8.76075 9.81018 7.98617L13.5667 2.98831C13.2511 2.67178 13.0557 2.23439 13.0557 1.75186C13.0557 0.786768 13.8374 0.00146484 14.7983 0.00146484C15.7593 0.00146484 16.541 0.786768 16.541 1.75186C16.541 2.21978 16.356 2.64425 16.0569 2.95863C16.0579 2.95993 16.0592 2.96123 16.0601 2.96251L19.7893 7.97415C20.3713 8.75602 21.2991 9.2235 22.2716 9.2235C23.0993 9.2235 23.8776 8.89966 24.4628 8.31218L26.7629 6.00225C26.3665 5.681 26.1118 5.19072 26.1118 4.64065C26.1118 3.67515 26.8936 2.89025 27.8545 2.89025C28.8154 2.89025 29.5972 3.67515 29.5972 4.64065C29.5972 5.40145 29.1097 6.04913 28.4326 6.28911ZM26.4069 17.1669C26.4069 16.7072 26.0354 16.3339 25.5771 16.3339H4.11183C3.65353 16.3339 3.28195 16.7072 3.28195 17.1669V19.1668C3.28195 19.6274 3.65353 20.0003 4.11183 20.0003H25.5771C26.0354 20.0003 26.4069 19.6274 26.4069 19.1668V17.1669Z" fill="#02073E"/>
</svg>
